<?xml version="1.0" encoding="utf-8" standalone="no"?>
<!DOCTYPE svg PUBLIC "-//W3C//DTD SVG 1.1//EN"
  "http://www.w3.org/Graphics/SVG/1.1/DTD/svg11.dtd">
<svg xmlns:xlink="http://www.w3.org/1999/xlink" width="560.64625pt" height="218.220234pt" viewBox="0 0 560.64625 218.220234" xmlns="http://www.w3.org/2000/svg" version="1.1">
 <metadata>
  <rdf:RDF xmlns:dc="http://purl.org/dc/elements/1.1/" xmlns:cc="http://creativecommons.org/ns#" xmlns:rdf="http://www.w3.org/1999/02/22-rdf-syntax-ns#">
   <cc:Work>
    <dc:type rdf:resource="http://purl.org/dc/dcmitype/StillImage"/>
    <dc:format>image/svg+xml</dc:format>
   </cc:Work>
  </rdf:RDF>
 </metadata>
 <defs>
  <style type="text/css">*{stroke-linejoin: round; stroke-linecap: butt}</style>
 </defs>
 <g id="figure_1">
  <g id="patch_1">
   <path d="M 0 218.220234 
L 560.64625 218.220234 
L 560.64625 0 
L 0 0 
z
" style="fill: #ffffff"/>
  </g>
  <g id="axes_1">
   <g id="patch_2">
    <path d="M 141.958133 53.929026 
L 157.564277 53.929026 
L 157.564277 77.747693 
L 141.958133 77.747693 
z
" clip-path="url(#p8a46d59505)" style="fill: #ffffff; stroke: #dfe3e8; stroke-width: 0.5; stroke-linejoin: miter"/>
   </g>
   <g id="patch_3">
    <path d="M 158.921333 53.929026 
L 174.527477 53.929026 
L 174.527477 77.747693 
L 158.921333 77.747693 
z
" clip-path="url(#p8a46d59505)" style="fill: #ffffff; stroke: #dfe3e8; stroke-width: 0.5; stroke-linejoin: miter"/>
   </g>
   <g id="patch_4">
    <path d="M 175.884533 53.929026 
L 191.490677 53.929026 
L 191.490677 77.747693 
L 175.884533 77.747693 
z
" clip-path="url(#p8a46d59505)" style="fill: #ffffff; stroke: #dfe3e8; stroke-width: 0.5; stroke-linejoin: miter"/>
   </g>
   <g id="patch_5">
    <path d="M 192.847733 53.929026 
L 208.453877 53.929026 
L 208.453877 77.747693 
L 192.847733 77.747693 
z
" clip-path="url(#p8a46d59505)" style="fill: #ffffff; stroke: #dfe3e8; stroke-width: 0.5; stroke-linejoin: miter"/>
   </g>
   <g id="patch_6">
    <path d="M 209.810933 53.929026 
L 225.417077 53.929026 
L 225.417077 77.747693 
L 209.810933 77.747693 
z
" clip-path="url(#p8a46d59505)" style="fill: #ffffff; stroke: #dfe3e8; stroke-width: 0.5; stroke-linejoin: miter"/>
   </g>
   <g id="patch_7">
    <path d="M 226.774133 53.929026 
L 242.380277 53.929026 
L 242.380277 77.747693 
L 226.774133 77.747693 
z
" clip-path="url(#p8a46d59505)" style="fill: #ffffff; stroke: #dfe3e8; stroke-width: 0.5; stroke-linejoin: miter"/>
   </g>
   <g id="patch_8">
    <path d="M 243.737333 53.929026 
L 259.343477 53.929026 
L 259.343477 77.747693 
L 243.737333 77.747693 
z
" clip-path="url(#p8a46d59505)" style="fill: #ffffff; stroke: #dfe3e8; stroke-width: 0.5; stroke-linejoin: miter"/>
   </g>
   <g id="patch_9">
    <path d="M 260.700533 53.929026 
L 276.306677 53.929026 
L 276.306677 77.747693 
L 260.700533 77.747693 
z
" clip-path="url(#p8a46d59505)" style="fill: #ffffff; stroke: #dfe3e8; stroke-width: 0.5; stroke-linejoin: miter"/>
   </g>
   <g id="patch_10">
    <path d="M 277.663733 53.929026 
L 293.269877 53.929026 
L 293.269877 77.747693 
L 277.663733 77.747693 
z
" clip-path="url(#p8a46d59505)" style="fill: #ffffff; stroke: #dfe3e8; stroke-width: 0.5; stroke-linejoin: miter"/>
   </g>
   <g id="patch_11">
    <path d="M 294.626933 53.929026 
L 310.233077 53.929026 
L 310.233077 77.747693 
L 294.626933 77.747693 
z
" clip-path="url(#p8a46d59505)" style="fill: #ffffff; stroke: #dfe3e8; stroke-width: 0.5; stroke-linejoin: miter"/>
   </g>
   <g id="patch_12">
    <path d="M 311.590133 53.929026 
L 327.196277 53.929026 
L 327.196277 77.747693 
L 311.590133 77.747693 
z
" clip-path="url(#p8a46d59505)" style="fill: #ffffff; stroke: #dfe3e8; stroke-width: 0.5; stroke-linejoin: miter"/>
   </g>
   <g id="patch_13">
    <path d="M 328.553333 53.929026 
L 344.159477 53.929026 
L 344.159477 77.747693 
L 328.553333 77.747693 
z
" clip-path="url(#p8a46d59505)" style="fill: #ffffff; stroke: #dfe3e8; stroke-width: 0.5; stroke-linejoin: miter"/>
   </g>
   <g id="patch_14">
    <path d="M 345.516533 53.929026 
L 361.122677 53.929026 
L 361.122677 77.747693 
L 345.516533 77.747693 
z
" clip-path="url(#p8a46d59505)" style="fill: #ffffff; stroke: #dfe3e8; stroke-width: 0.5; stroke-linejoin: miter"/>
   </g>
   <g id="patch_15">
    <path d="M 362.479733 53.929026 
L 378.085877 53.929026 
L 378.085877 77.747693 
L 362.479733 77.747693 
z
" clip-path="url(#p8a46d59505)" style="fill: #ffffff; stroke: #dfe3e8; stroke-width: 0.5; stroke-linejoin: miter"/>
   </g>
   <g id="patch_16">
    <path d="M 379.442933 53.929026 
L 395.049077 53.929026 
L 395.049077 77.747693 
L 379.442933 77.747693 
z
" clip-path="url(#p8a46d59505)" style="fill: #ffffff; stroke: #dfe3e8; stroke-width: 0.5; stroke-linejoin: miter"/>
   </g>
   <g id="patch_17">
    <path d="M 141.958133 83.702359 
L 157.564277 83.702359 
L 157.564277 107.521026 
L 141.958133 107.521026 
z
" clip-path="url(#p8a46d59505)" style="fill: #ffffff; stroke: #dfe3e8; stroke-width: 0.5; stroke-linejoin: miter"/>
   </g>
   <g id="patch_18">
    <path d="M 158.921333 83.702359 
L 174.527477 83.702359 
L 174.527477 107.521026 
L 158.921333 107.521026 
z
" clip-path="url(#p8a46d59505)" style="fill: #ffffff; stroke: #dfe3e8; stroke-width: 0.5; stroke-linejoin: miter"/>
   </g>
   <g id="patch_19">
    <path d="M 175.884533 83.702359 
L 191.490677 83.702359 
L 191.490677 107.521026 
L 175.884533 107.521026 
z
" clip-path="url(#p8a46d59505)" style="fill: #ffffff; stroke: #dfe3e8; stroke-width: 0.5; stroke-linejoin: miter"/>
   </g>
   <g id="patch_20">
    <path d="M 192.847733 83.702359 
L 208.453877 83.702359 
L 208.453877 107.521026 
L 192.847733 107.521026 
z
" clip-path="url(#p8a46d59505)" style="fill: #ffffff; stroke: #dfe3e8; stroke-width: 0.5; stroke-linejoin: miter"/>
   </g>
   <g id="patch_21">
    <path d="M 209.810933 83.702359 
L 225.417077 83.702359 
L 225.417077 107.521026 
L 209.810933 107.521026 
z
" clip-path="url(#p8a46d59505)" style="fill: #ffffff; stroke: #dfe3e8; stroke-width: 0.5; stroke-linejoin: miter"/>
   </g>
   <g id="patch_22">
    <path d="M 226.774133 83.702359 
L 242.380277 83.702359 
L 242.380277 107.521026 
L 226.774133 107.521026 
z
" clip-path="url(#p8a46d59505)" style="fill: #ffffff; stroke: #dfe3e8; stroke-width: 0.5; stroke-linejoin: miter"/>
   </g>
   <g id="patch_23">
    <path d="M 243.737333 83.702359 
L 259.343477 83.702359 
L 259.343477 107.521026 
L 243.737333 107.521026 
z
" clip-path="url(#p8a46d59505)" style="fill: #f3d9d8; stroke: #dfe3e8; stroke-width: 0.5; stroke-linejoin: miter"/>
   </g>
   <g id="patch_24">
    <path d="M 260.700533 83.702359 
L 276.306677 83.702359 
L 276.306677 107.521026 
L 260.700533 107.521026 
z
" clip-path="url(#p8a46d59505)" style="fill: #f3d9d8; stroke: #dfe3e8; stroke-width: 0.5; stroke-linejoin: miter"/>
   </g>
   <g id="patch_25">
    <path d="M 277.663733 83.702359 
L 293.269877 83.702359 
L 293.269877 107.521026 
L 277.663733 107.521026 
z
" clip-path="url(#p8a46d59505)" style="fill: #ffffff; stroke: #dfe3e8; stroke-width: 0.5; stroke-linejoin: miter"/>
   </g>
   <g id="patch_26">
    <path d="M 294.626933 83.702359 
L 310.233077 83.702359 
L 310.233077 107.521026 
L 294.626933 107.521026 
z
" clip-path="url(#p8a46d59505)" style="fill: #ffffff; stroke: #dfe3e8; stroke-width: 0.5; stroke-linejoin: miter"/>
   </g>
   <g id="patch_27">
    <path d="M 311.590133 83.702359 
L 327.196277 83.702359 
L 327.196277 107.521026 
L 311.590133 107.521026 
z
" clip-path="url(#p8a46d59505)" style="fill: #ffffff; stroke: #dfe3e8; stroke-width: 0.5; stroke-linejoin: miter"/>
   </g>
   <g id="patch_28">
    <path d="M 328.553333 83.702359 
L 344.159477 83.702359 
L 344.159477 107.521026 
L 328.553333 107.521026 
z
" clip-path="url(#p8a46d59505)" style="fill: #ffffff; stroke: #dfe3e8; stroke-width: 0.5; stroke-linejoin: miter"/>
   </g>
   <g id="patch_29">
    <path d="M 345.516533 83.702359 
L 361.122677 83.702359 
L 361.122677 107.521026 
L 345.516533 107.521026 
z
" clip-path="url(#p8a46d59505)" style="fill: #ffffff; stroke: #dfe3e8; stroke-width: 0.5; stroke-linejoin: miter"/>
   </g>
   <g id="patch_30">
    <path d="M 362.479733 83.702359 
L 378.085877 83.702359 
L 378.085877 107.521026 
L 362.479733 107.521026 
z
" clip-path="url(#p8a46d59505)" style="fill: #ffffff; stroke: #dfe3e8; stroke-width: 0.5; stroke-linejoin: miter"/>
   </g>
   <g id="patch_31">
    <path d="M 379.442933 83.702359 
L 395.049077 83.702359 
L 395.049077 107.521026 
L 379.442933 107.521026 
z
" clip-path="url(#p8a46d59505)" style="fill: #ffffff; stroke: #dfe3e8; stroke-width: 0.5; stroke-linejoin: miter"/>
   </g>
   <g id="patch_32">
    <path d="M 141.958133 113.475693 
L 157.564277 113.475693 
L 157.564277 137.294359 
L 141.958133 137.294359 
z
" clip-path="url(#p8a46d59505)" style="fill: #ffffff; stroke: #dfe3e8; stroke-width: 0.5; stroke-linejoin: miter"/>
   </g>
   <g id="patch_33">
    <path d="M 158.921333 113.475693 
L 174.527477 113.475693 
L 174.527477 137.294359 
L 158.921333 137.294359 
z
" clip-path="url(#p8a46d59505)" style="fill: #ffffff; stroke: #dfe3e8; stroke-width: 0.5; stroke-linejoin: miter"/>
   </g>
   <g id="patch_34">
    <path d="M 175.884533 113.475693 
L 191.490677 113.475693 
L 191.490677 137.294359 
L 175.884533 137.294359 
z
" clip-path="url(#p8a46d59505)" style="fill: #ffffff; stroke: #dfe3e8; stroke-width: 0.5; stroke-linejoin: miter"/>
   </g>
   <g id="patch_35">
    <path d="M 192.847733 113.475693 
L 208.453877 113.475693 
L 208.453877 137.294359 
L 192.847733 137.294359 
z
" clip-path="url(#p8a46d59505)" style="fill: #ffffff; stroke: #dfe3e8; stroke-width: 0.5; stroke-linejoin: miter"/>
   </g>
   <g id="patch_36">
    <path d="M 209.810933 113.475693 
L 225.417077 113.475693 
L 225.417077 137.294359 
L 209.810933 137.294359 
z
" clip-path="url(#p8a46d59505)" style="fill: #ffffff; stroke: #dfe3e8; stroke-width: 0.5; stroke-linejoin: miter"/>
   </g>
   <g id="patch_37">
    <path d="M 226.774133 113.475693 
L 242.380277 113.475693 
L 242.380277 137.294359 
L 226.774133 137.294359 
z
" clip-path="url(#p8a46d59505)" style="fill: #ffffff; stroke: #dfe3e8; stroke-width: 0.5; stroke-linejoin: miter"/>
   </g>
   <g id="patch_38">
    <path d="M 243.737333 113.475693 
L 259.343477 113.475693 
L 259.343477 137.294359 
L 243.737333 137.294359 
z
" clip-path="url(#p8a46d59505)" style="fill: #ffffff; stroke: #dfe3e8; stroke-width: 0.5; stroke-linejoin: miter"/>
   </g>
   <g id="patch_39">
    <path d="M 260.700533 113.475693 
L 276.306677 113.475693 
L 276.306677 137.294359 
L 260.700533 137.294359 
z
" clip-path="url(#p8a46d59505)" style="fill: #ffffff; stroke: #dfe3e8; stroke-width: 0.5; stroke-linejoin: miter"/>
   </g>
   <g id="patch_40">
    <path d="M 277.663733 113.475693 
L 293.269877 113.475693 
L 293.269877 137.294359 
L 277.663733 137.294359 
z
" clip-path="url(#p8a46d59505)" style="fill: #ffffff; stroke: #dfe3e8; stroke-width: 0.5; stroke-linejoin: miter"/>
   </g>
   <g id="patch_41">
    <path d="M 294.626933 113.475693 
L 310.233077 113.475693 
L 310.233077 137.294359 
L 294.626933 137.294359 
z
" clip-path="url(#p8a46d59505)" style="fill: #ffffff; stroke: #dfe3e8; stroke-width: 0.5; stroke-linejoin: miter"/>
   </g>
   <g id="patch_42">
    <path d="M 311.590133 113.475693 
L 327.196277 113.475693 
L 327.196277 137.294359 
L 311.590133 137.294359 
z
" clip-path="url(#p8a46d59505)" style="fill: #ffffff; stroke: #dfe3e8; stroke-width: 0.5; stroke-linejoin: miter"/>
   </g>
   <g id="patch_43">
    <path d="M 328.553333 113.475693 
L 344.159477 113.475693 
L 344.159477 137.294359 
L 328.553333 137.294359 
z
" clip-path="url(#p8a46d59505)" style="fill: #ffffff; stroke: #dfe3e8; stroke-width: 0.5; stroke-linejoin: miter"/>
   </g>
   <g id="patch_44">
    <path d="M 345.516533 113.475693 
L 361.122677 113.475693 
L 361.122677 137.294359 
L 345.516533 137.294359 
z
" clip-path="url(#p8a46d59505)" style="fill: #ffffff; stroke: #dfe3e8; stroke-width: 0.5; stroke-linejoin: miter"/>
   </g>
   <g id="patch_45">
    <path d="M 362.479733 113.475693 
L 378.085877 113.475693 
L 378.085877 137.294359 
L 362.479733 137.294359 
z
" clip-path="url(#p8a46d59505)" style="fill: #ffffff; stroke: #dfe3e8; stroke-width: 0.5; stroke-linejoin: miter"/>
   </g>
   <g id="patch_46">
    <path d="M 379.442933 113.475693 
L 395.049077 113.475693 
L 395.049077 137.294359 
L 379.442933 137.294359 
z
" clip-path="url(#p8a46d59505)" style="fill: #ffffff; stroke: #dfe3e8; stroke-width: 0.5; stroke-linejoin: miter"/>
   </g>
   <g id="patch_47">
    <path d="M 141.958133 143.249026 
L 157.564277 143.249026 
L 157.564277 167.067693 
L 141.958133 167.067693 
z
" clip-path="url(#p8a46d59505)" style="fill: #ffffff; stroke: #dfe3e8; stroke-width: 0.5; stroke-linejoin: miter"/>
   </g>
   <g id="patch_48">
    <path d="M 158.921333 143.249026 
L 174.527477 143.249026 
L 174.527477 167.067693 
L 158.921333 167.067693 
z
" clip-path="url(#p8a46d59505)" style="fill: #ffffff; stroke: #dfe3e8; stroke-width: 0.5; stroke-linejoin: miter"/>
   </g>
   <g id="patch_49">
    <path d="M 175.884533 143.249026 
L 191.490677 143.249026 
L 191.490677 167.067693 
L 175.884533 167.067693 
z
" clip-path="url(#p8a46d59505)" style="fill: #ffffff; stroke: #dfe3e8; stroke-width: 0.5; stroke-linejoin: miter"/>
   </g>
   <g id="patch_50">
    <path d="M 192.847733 143.249026 
L 208.453877 143.249026 
L 208.453877 167.067693 
L 192.847733 167.067693 
z
" clip-path="url(#p8a46d59505)" style="fill: #ffffff; stroke: #dfe3e8; stroke-width: 0.5; stroke-linejoin: miter"/>
   </g>
   <g id="patch_51">
    <path d="M 209.810933 143.249026 
L 225.417077 143.249026 
L 225.417077 167.067693 
L 209.810933 167.067693 
z
" clip-path="url(#p8a46d59505)" style="fill: #ffffff; stroke: #dfe3e8; stroke-width: 0.5; stroke-linejoin: miter"/>
   </g>
   <g id="patch_52">
    <path d="M 226.774133 143.249026 
L 242.380277 143.249026 
L 242.380277 167.067693 
L 226.774133 167.067693 
z
" clip-path="url(#p8a46d59505)" style="fill: #ffffff; stroke: #dfe3e8; stroke-width: 0.5; stroke-linejoin: miter"/>
   </g>
   <g id="patch_53">
    <path d="M 243.737333 143.249026 
L 259.343477 143.249026 
L 259.343477 167.067693 
L 243.737333 167.067693 
z
" clip-path="url(#p8a46d59505)" style="fill: #ffffff; stroke: #dfe3e8; stroke-width: 0.5; stroke-linejoin: miter"/>
   </g>
   <g id="patch_54">
    <path d="M 260.700533 143.249026 
L 276.306677 143.249026 
L 276.306677 167.067693 
L 260.700533 167.067693 
z
" clip-path="url(#p8a46d59505)" style="fill: #ffffff; stroke: #dfe3e8; stroke-width: 0.5; stroke-linejoin: miter"/>
   </g>
   <g id="patch_55">
    <path d="M 277.663733 143.249026 
L 293.269877 143.249026 
L 293.269877 167.067693 
L 277.663733 167.067693 
z
" clip-path="url(#p8a46d59505)" style="fill: #ffffff; stroke: #dfe3e8; stroke-width: 0.5; stroke-linejoin: miter"/>
   </g>
   <g id="patch_56">
    <path d="M 294.626933 143.249026 
L 310.233077 143.249026 
L 310.233077 167.067693 
L 294.626933 167.067693 
z
" clip-path="url(#p8a46d59505)" style="fill: #ffffff; stroke: #dfe3e8; stroke-width: 0.5; stroke-linejoin: miter"/>
   </g>
   <g id="patch_57">
    <path d="M 311.590133 143.249026 
L 327.196277 143.249026 
L 327.196277 167.067693 
L 311.590133 167.067693 
z
" clip-path="url(#p8a46d59505)" style="fill: #ffffff; stroke: #dfe3e8; stroke-width: 0.5; stroke-linejoin: miter"/>
   </g>
   <g id="patch_58">
    <path d="M 328.553333 143.249026 
L 344.159477 143.249026 
L 344.159477 167.067693 
L 328.553333 167.067693 
z
" clip-path="url(#p8a46d59505)" style="fill: #ffffff; stroke: #dfe3e8; stroke-width: 0.5; stroke-linejoin: miter"/>
   </g>
   <g id="patch_59">
    <path d="M 345.516533 143.249026 
L 361.122677 143.249026 
L 361.122677 167.067693 
L 345.516533 167.067693 
z
" clip-path="url(#p8a46d59505)" style="fill: #ffffff; stroke: #dfe3e8; stroke-width: 0.5; stroke-linejoin: miter"/>
   </g>
   <g id="patch_60">
    <path d="M 362.479733 143.249026 
L 378.085877 143.249026 
L 378.085877 167.067693 
L 362.479733 167.067693 
z
" clip-path="url(#p8a46d59505)" style="fill: #ffffff; stroke: #dfe3e8; stroke-width: 0.5; stroke-linejoin: miter"/>
   </g>
   <g id="patch_61">
    <path d="M 379.442933 143.249026 
L 395.049077 143.249026 
L 395.049077 167.067693 
L 379.442933 167.067693 
z
" clip-path="url(#p8a46d59505)" style="fill: #ffffff; stroke: #dfe3e8; stroke-width: 0.5; stroke-linejoin: miter"/>
   </g>
   <g id="text_1">
    <text style="font-size: 10px; font-family: 'DejaVu Sans Mono'; text-anchor: middle; fill: #16181d" x="149.761205" y="68.436016" transform="rotate(-0 149.761205 68.436016)">P</text>
   </g>
   <g id="text_2">
    <text style="font-size: 10px; font-family: 'DejaVu Sans Mono'; text-anchor: middle; fill: #16181d" x="166.724405" y="68.436016" transform="rotate(-0 166.724405 68.436016)">C</text>
   </g>
   <g id="text_3">
    <text style="font-size: 10px; font-family: 'DejaVu Sans Mono'; text-anchor: middle; fill: #16181d" x="183.687605" y="68.436016" transform="rotate(-0 183.687605 68.436016)">P</text>
   </g>
   <g id="text_4">
    <text style="font-size: 10px; font-family: 'DejaVu Sans Mono'; text-anchor: middle; fill: #16181d" x="200.650805" y="68.436016" transform="rotate(-0 200.650805 68.436016)">A</text>
   </g>
   <g id="text_5">
    <text style="font-size: 10px; font-family: 'DejaVu Sans Mono'; text-anchor: middle; fill: #16181d" x="217.614005" y="68.436016" transform="rotate(-0 217.614005 68.436016)">P</text>
   </g>
   <g id="text_6">
    <text style="font-size: 10px; font-family: 'DejaVu Sans Mono'; text-anchor: middle; fill: #16181d" x="234.577205" y="68.436016" transform="rotate(-0 234.577205 68.436016)">E</text>
   </g>
   <g id="text_7">
    <text style="font-size: 10px; font-family: 'DejaVu Sans Mono'; text-anchor: middle; fill: #16181d" x="251.540405" y="68.436016" transform="rotate(-0 251.540405 68.436016)">L</text>
   </g>
   <g id="text_8">
    <text style="font-size: 10px; font-family: 'DejaVu Sans Mono'; text-anchor: middle; fill: #16181d" x="268.503605" y="68.436016" transform="rotate(-0 268.503605 68.436016)">L</text>
   </g>
   <g id="text_9">
    <text style="font-size: 10px; font-family: 'DejaVu Sans Mono'; text-anchor: middle; fill: #16181d" x="285.466805" y="68.436016" transform="rotate(-0 285.466805 68.436016)">G</text>
   </g>
   <g id="text_10">
    <text style="font-size: 10px; font-family: 'DejaVu Sans Mono'; text-anchor: middle; fill: #16181d" x="302.430005" y="68.436016" transform="rotate(-0 302.430005 68.436016)">G</text>
   </g>
   <g id="text_11">
    <text style="font-size: 10px; font-family: 'DejaVu Sans Mono'; text-anchor: middle; fill: #16181d" x="319.393205" y="68.436016" transform="rotate(-0 319.393205 68.436016)">P</text>
   </g>
   <g id="text_12">
    <text style="font-size: 10px; font-family: 'DejaVu Sans Mono'; text-anchor: middle; fill: #16181d" x="336.356405" y="68.436016" transform="rotate(-0 336.356405 68.436016)">S</text>
   </g>
   <g id="text_13">
    <text style="font-size: 10px; font-family: 'DejaVu Sans Mono'; text-anchor: middle; fill: #16181d" x="353.319605" y="68.436016" transform="rotate(-0 353.319605 68.436016)">V</text>
   </g>
   <g id="text_14">
    <text style="font-size: 10px; font-family: 'DejaVu Sans Mono'; text-anchor: middle; fill: #16181d" x="370.282805" y="68.436016" transform="rotate(-0 370.282805 68.436016)">F</text>
   </g>
   <g id="text_15">
    <text style="font-size: 10px; font-family: 'DejaVu Sans Mono'; text-anchor: middle; fill: #16181d" x="387.246005" y="68.436016" transform="rotate(-0 387.246005 68.436016)">L</text>
   </g>
   <g id="text_16">
    <text style="font-size: 9px; font-family: 'DejaVu Sans'; text-anchor: end; fill: #16181d" x="131.101685" y="68.17625" transform="rotate(-0 131.101685 68.17625)">IgG1</text>
   </g>
   <g id="text_17">
    <text style="font-size: 10px; font-family: 'DejaVu Sans Mono'; text-anchor: middle; fill: #16181d" x="149.761205" y="98.209349" transform="rotate(-0 149.761205 98.209349)">P</text>
   </g>
   <g id="text_18">
    <text style="font-size: 10px; font-family: 'DejaVu Sans Mono'; text-anchor: middle; fill: #16181d" x="166.724405" y="98.209349" transform="rotate(-0 166.724405 98.209349)">C</text>
   </g>
   <g id="text_19">
    <text style="font-size: 10px; font-family: 'DejaVu Sans Mono'; text-anchor: middle; fill: #16181d" x="183.687605" y="98.209349" transform="rotate(-0 183.687605 98.209349)">P</text>
   </g>
   <g id="text_20">
    <text style="font-size: 10px; font-family: 'DejaVu Sans Mono'; text-anchor: middle; fill: #16181d" x="200.650805" y="98.209349" transform="rotate(-0 200.650805 98.209349)">A</text>
   </g>
   <g id="text_21">
    <text style="font-size: 10px; font-family: 'DejaVu Sans Mono'; text-anchor: middle; fill: #16181d" x="217.614005" y="98.209349" transform="rotate(-0 217.614005 98.209349)">P</text>
   </g>
   <g id="text_22">
    <text style="font-size: 10px; font-family: 'DejaVu Sans Mono'; text-anchor: middle; fill: #16181d" x="234.577205" y="98.209349" transform="rotate(-0 234.577205 98.209349)">P</text>
   </g>
   <g id="text_23">
    <text style="font-size: 10px; font-family: 'DejaVu Sans Mono'; text-anchor: middle; fill: #b0413e" x="251.540405" y="98.209349" transform="rotate(-0 251.540405 98.209349)">–</text>
   </g>
   <g id="text_24">
    <text style="font-size: 10px; font-family: 'DejaVu Sans Mono'; text-anchor: middle; fill: #b0413e" x="268.503605" y="98.209349" transform="rotate(-0 268.503605 98.209349)">V</text>
   </g>
   <g id="text_25">
    <text style="font-size: 10px; font-family: 'DejaVu Sans Mono'; text-anchor: middle; fill: #16181d" x="285.466805" y="98.209349" transform="rotate(-0 285.466805 98.209349)">A</text>
   </g>
   <g id="text_26">
    <text style="font-size: 10px; font-family: 'DejaVu Sans Mono'; text-anchor: middle; fill: #16181d" x="302.430005" y="98.209349" transform="rotate(-0 302.430005 98.209349)">G</text>
   </g>
   <g id="text_27">
    <text style="font-size: 10px; font-family: 'DejaVu Sans Mono'; text-anchor: middle; fill: #16181d" x="319.393205" y="98.209349" transform="rotate(-0 319.393205 98.209349)">P</text>
   </g>
   <g id="text_28">
    <text style="font-size: 10px; font-family: 'DejaVu Sans Mono'; text-anchor: middle; fill: #16181d" x="336.356405" y="98.209349" transform="rotate(-0 336.356405 98.209349)">S</text>
   </g>
   <g id="text_29">
    <text style="font-size: 10px; font-family: 'DejaVu Sans Mono'; text-anchor: middle; fill: #16181d" x="353.319605" y="98.209349" transform="rotate(-0 353.319605 98.209349)">V</text>
   </g>
   <g id="text_30">
    <text style="font-size: 10px; font-family: 'DejaVu Sans Mono'; text-anchor: middle; fill: #16181d" x="370.282805" y="98.209349" transform="rotate(-0 370.282805 98.209349)">F</text>
   </g>
   <g id="text_31">
    <text style="font-size: 10px; font-family: 'DejaVu Sans Mono'; text-anchor: middle; fill: #16181d" x="387.246005" y="98.209349" transform="rotate(-0 387.246005 98.209349)">L</text>
   </g>
   <g id="text_32">
    <text style="font-size: 9px; font-family: 'DejaVu Sans'; text-anchor: end; fill: #16181d" x="131.101685" y="97.949583" transform="rotate(-0 131.101685 97.949583)">IgG2</text>
   </g>
   <g id="text_33">
    <text style="font-size: 10px; font-family: 'DejaVu Sans Mono'; text-anchor: middle; fill: #16181d" x="149.761205" y="127.982682" transform="rotate(-0 149.761205 127.982682)">R</text>
   </g>
   <g id="text_34">
    <text style="font-size: 10px; font-family: 'DejaVu Sans Mono'; text-anchor: middle; fill: #16181d" x="166.724405" y="127.982682" transform="rotate(-0 166.724405 127.982682)">C</text>
   </g>
   <g id="text_35">
    <text style="font-size: 10px; font-family: 'DejaVu Sans Mono'; text-anchor: middle; fill: #16181d" x="183.687605" y="127.982682" transform="rotate(-0 183.687605 127.982682)">P</text>
   </g>
   <g id="text_36">
    <text style="font-size: 10px; font-family: 'DejaVu Sans Mono'; text-anchor: middle; fill: #16181d" x="200.650805" y="127.982682" transform="rotate(-0 200.650805 127.982682)">A</text>
   </g>
   <g id="text_37">
    <text style="font-size: 10px; font-family: 'DejaVu Sans Mono'; text-anchor: middle; fill: #16181d" x="217.614005" y="127.982682" transform="rotate(-0 217.614005 127.982682)">P</text>
   </g>
   <g id="text_38">
    <text style="font-size: 10px; font-family: 'DejaVu Sans Mono'; text-anchor: middle; fill: #16181d" x="234.577205" y="127.982682" transform="rotate(-0 234.577205 127.982682)">E</text>
   </g>
   <g id="text_39">
    <text style="font-size: 10px; font-family: 'DejaVu Sans Mono'; text-anchor: middle; fill: #16181d" x="251.540405" y="127.982682" transform="rotate(-0 251.540405 127.982682)">L</text>
   </g>
   <g id="text_40">
    <text style="font-size: 10px; font-family: 'DejaVu Sans Mono'; text-anchor: middle; fill: #16181d" x="268.503605" y="127.982682" transform="rotate(-0 268.503605 127.982682)">L</text>
   </g>
   <g id="text_41">
    <text style="font-size: 10px; font-family: 'DejaVu Sans Mono'; text-anchor: middle; fill: #16181d" x="285.466805" y="127.982682" transform="rotate(-0 285.466805 127.982682)">G</text>
   </g>
   <g id="text_42">
    <text style="font-size: 10px; font-family: 'DejaVu Sans Mono'; text-anchor: middle; fill: #16181d" x="302.430005" y="127.982682" transform="rotate(-0 302.430005 127.982682)">G</text>
   </g>
   <g id="text_43">
    <text style="font-size: 10px; font-family: 'DejaVu Sans Mono'; text-anchor: middle; fill: #16181d" x="319.393205" y="127.982682" transform="rotate(-0 319.393205 127.982682)">P</text>
   </g>
   <g id="text_44">
    <text style="font-size: 10px; font-family: 'DejaVu Sans Mono'; text-anchor: middle; fill: #16181d" x="336.356405" y="127.982682" transform="rotate(-0 336.356405 127.982682)">S</text>
   </g>
   <g id="text_45">
    <text style="font-size: 10px; font-family: 'DejaVu Sans Mono'; text-anchor: middle; fill: #16181d" x="353.319605" y="127.982682" transform="rotate(-0 353.319605 127.982682)">V</text>
   </g>
   <g id="text_46">
    <text style="font-size: 10px; font-family: 'DejaVu Sans Mono'; text-anchor: middle; fill: #16181d" x="370.282805" y="127.982682" transform="rotate(-0 370.282805 127.982682)">F</text>
   </g>
   <g id="text_47">
    <text style="font-size: 10px; font-family: 'DejaVu Sans Mono'; text-anchor: middle; fill: #16181d" x="387.246005" y="127.982682" transform="rotate(-0 387.246005 127.982682)">L</text>
   </g>
   <g id="text_48">
    <text style="font-size: 9px; font-family: 'DejaVu Sans'; text-anchor: end; fill: #16181d" x="131.101685" y="127.722917" transform="rotate(-0 131.101685 127.722917)">IgG3</text>
   </g>
   <g id="text_49">
    <text style="font-size: 10px; font-family: 'DejaVu Sans Mono'; text-anchor: middle; fill: #16181d" x="149.761205" y="157.756016" transform="rotate(-0 149.761205 157.756016)">S</text>
   </g>
   <g id="text_50">
    <text style="font-size: 10px; font-family: 'DejaVu Sans Mono'; text-anchor: middle; fill: #16181d" x="166.724405" y="157.756016" transform="rotate(-0 166.724405 157.756016)">C</text>
   </g>
   <g id="text_51">
    <text style="font-size: 10px; font-family: 'DejaVu Sans Mono'; text-anchor: middle; fill: #16181d" x="183.687605" y="157.756016" transform="rotate(-0 183.687605 157.756016)">P</text>
   </g>
   <g id="text_52">
    <text style="font-size: 10px; font-family: 'DejaVu Sans Mono'; text-anchor: middle; fill: #16181d" x="200.650805" y="157.756016" transform="rotate(-0 200.650805 157.756016)">A</text>
   </g>
   <g id="text_53">
    <text style="font-size: 10px; font-family: 'DejaVu Sans Mono'; text-anchor: middle; fill: #16181d" x="217.614005" y="157.756016" transform="rotate(-0 217.614005 157.756016)">P</text>
   </g>
   <g id="text_54">
    <text style="font-size: 10px; font-family: 'DejaVu Sans Mono'; text-anchor: middle; fill: #16181d" x="234.577205" y="157.756016" transform="rotate(-0 234.577205 157.756016)">E</text>
   </g>
   <g id="text_55">
    <text style="font-size: 10px; font-family: 'DejaVu Sans Mono'; text-anchor: middle; fill: #16181d" x="251.540405" y="157.756016" transform="rotate(-0 251.540405 157.756016)">F</text>
   </g>
   <g id="text_56">
    <text style="font-size: 10px; font-family: 'DejaVu Sans Mono'; text-anchor: middle; fill: #16181d" x="268.503605" y="157.756016" transform="rotate(-0 268.503605 157.756016)">L</text>
   </g>
   <g id="text_57">
    <text style="font-size: 10px; font-family: 'DejaVu Sans Mono'; text-anchor: middle; fill: #16181d" x="285.466805" y="157.756016" transform="rotate(-0 285.466805 157.756016)">G</text>
   </g>
   <g id="text_58">
    <text style="font-size: 10px; font-family: 'DejaVu Sans Mono'; text-anchor: middle; fill: #16181d" x="302.430005" y="157.756016" transform="rotate(-0 302.430005 157.756016)">G</text>
   </g>
   <g id="text_59">
    <text style="font-size: 10px; font-family: 'DejaVu Sans Mono'; text-anchor: middle; fill: #16181d" x="319.393205" y="157.756016" transform="rotate(-0 319.393205 157.756016)">P</text>
   </g>
   <g id="text_60">
    <text style="font-size: 10px; font-family: 'DejaVu Sans Mono'; text-anchor: middle; fill: #16181d" x="336.356405" y="157.756016" transform="rotate(-0 336.356405 157.756016)">S</text>
   </g>
   <g id="text_61">
    <text style="font-size: 10px; font-family: 'DejaVu Sans Mono'; text-anchor: middle; fill: #16181d" x="353.319605" y="157.756016" transform="rotate(-0 353.319605 157.756016)">V</text>
   </g>
   <g id="text_62">
    <text style="font-size: 10px; font-family: 'DejaVu Sans Mono'; text-anchor: middle; fill: #16181d" x="370.282805" y="157.756016" transform="rotate(-0 370.282805 157.756016)">F</text>
   </g>
   <g id="text_63">
    <text style="font-size: 10px; font-family: 'DejaVu Sans Mono'; text-anchor: middle; fill: #16181d" x="387.246005" y="157.756016" transform="rotate(-0 387.246005 157.756016)">L</text>
   </g>
   <g id="text_64">
    <text style="font-size: 9px; font-family: 'DejaVu Sans'; text-anchor: end; fill: #16181d" x="131.101685" y="157.49625" transform="rotate(-0 131.101685 157.49625)">IgG4</text>
   </g>
   <g id="text_65">
    <text style="font-size: 7.5px; font-family: 'DejaVu Sans'; fill: #6b7280" transform="translate(151.709447 44.711505) rotate(-90)">228</text>
   </g>
   <g id="text_66">
    <text style="font-size: 7.5px; font-family: 'DejaVu Sans'; fill: #6b7280" transform="translate(168.672647 44.711505) rotate(-90)">229</text>
   </g>
   <g id="text_67">
    <text style="font-size: 7.5px; font-family: 'DejaVu Sans'; fill: #6b7280" transform="translate(185.635847 44.711505) rotate(-90)">230</text>
   </g>
   <g id="text_68">
    <text style="font-size: 7.5px; font-family: 'DejaVu Sans'; fill: #6b7280" transform="translate(202.599047 44.711505) rotate(-90)">231</text>
   </g>
   <g id="text_69">
    <text style="font-size: 7.5px; font-family: 'DejaVu Sans'; fill: #6b7280" transform="translate(219.562247 44.711505) rotate(-90)">232</text>
   </g>
   <g id="text_70">
    <text style="font-size: 7.5px; font-family: 'DejaVu Sans'; fill: #6b7280" transform="translate(236.525447 44.711505) rotate(-90)">233</text>
   </g>
   <g id="text_71">
    <text style="font-size: 7.5px; font-family: 'DejaVu Sans'; fill: #6b7280" transform="translate(253.488647 44.711505) rotate(-90)">234</text>
   </g>
   <g id="text_72">
    <text style="font-size: 7.5px; font-family: 'DejaVu Sans'; fill: #6b7280" transform="translate(270.451847 44.711505) rotate(-90)">235</text>
   </g>
   <g id="text_73">
    <text style="font-size: 7.5px; font-family: 'DejaVu Sans'; fill: #6b7280" transform="translate(287.415047 44.711505) rotate(-90)">236</text>
   </g>
   <g id="text_74">
    <text style="font-size: 7.5px; font-family: 'DejaVu Sans'; fill: #6b7280" transform="translate(304.378247 44.711505) rotate(-90)">237</text>
   </g>
   <g id="text_75">
    <text style="font-size: 7.5px; font-family: 'DejaVu Sans'; fill: #6b7280" transform="translate(321.341447 44.711505) rotate(-90)">238</text>
   </g>
   <g id="text_76">
    <text style="font-size: 7.5px; font-family: 'DejaVu Sans'; fill: #6b7280" transform="translate(338.304647 44.711505) rotate(-90)">239</text>
   </g>
   <g id="text_77">
    <text style="font-size: 7.5px; font-family: 'DejaVu Sans'; fill: #6b7280" transform="translate(355.267847 44.711505) rotate(-90)">240</text>
   </g>
   <g id="text_78">
    <text style="font-size: 7.5px; font-family: 'DejaVu Sans'; fill: #6b7280" transform="translate(372.231047 44.711505) rotate(-90)">241</text>
   </g>
   <g id="text_79">
    <text style="font-size: 7.5px; font-family: 'DejaVu Sans'; fill: #6b7280" transform="translate(389.194247 44.711505) rotate(-90)">242</text>
   </g>
   <g id="patch_62">
    <path d="M 407.000612 73.281693 
L 260.022005 73.281693 
L 260.022005 80.211843 
" style="fill: none; stroke: #b0413e; stroke-width: 0.8; stroke-linecap: round"/>
   </g>
   <g id="text_80">
    <text style="font-size: 8.5px; font-family: 'DejaVu Sans'; fill: #b0413e" transform="translate(410.994485 65.287708)">IgG2 has no residue</text>
    <text style="font-size: 8.5px; font-family: 'DejaVu Sans'; fill: #b0413e" transform="translate(410.994485 75.490033)">at 234; its valine</text>
    <text style="font-size: 8.5px; font-family: 'DejaVu Sans'; fill: #b0413e" transform="translate(410.994485 85.692357)">sits at 235</text>
   </g>
   <g id="text_81">
    <text style="font-weight: 500; font-size: 10.5px; font-family: 'DejaVu Sans'; text-anchor: middle; fill: #16181d" x="287.163125" y="15.178359" transform="rotate(-0 287.163125 15.178359)">The lower hinge in EU coordinates, aligned across isotypes</text>
   </g>
  </g>
  <g id="text_82">
   <text style="font-size: 8px; font-family: 'DejaVu Sans'; text-anchor: middle; fill: #6b7280" x="280.323125" y="209.098359" transform="rotate(-0 280.323125 209.098359)">The same physical residue is written V234A in the primary literature and V235A by IMGT. The alignment shows why both are defensible.</text>
  </g>
 </g>
 <defs>
  <clipPath id="p8a46d59505">
   <rect x="75.123125" y="21.178359" width="424.08" height="160.776"/>
  </clipPath>
 </defs>
</svg>
